<svg id="图层_1" data-name="图层 1" xmlns="http://www.w3.org/2000/svg" viewBox="0 0 200 140"><defs><style>.cls-1{opacity:0.9;}.cls-2{fill:#e8f4ff;}.cls-12,.cls-15,.cls-16,.cls-20,.cls-21,.cls-22,.cls-23,.cls-24,.cls-3,.cls-6,.cls-9{fill:#fff;}.cls-11,.cls-12,.cls-13,.cls-14,.cls-15,.cls-16,.cls-17,.cls-20,.cls-21,.cls-22,.cls-23,.cls-24,.cls-3,.cls-6{stroke:#3fa9f5;}.cls-11,.cls-12,.cls-13,.cls-14,.cls-15,.cls-16,.cls-17,.cls-20,.cls-21,.cls-22,.cls-23,.cls-24,.cls-3,.cls-4,.cls-5,.cls-6{stroke-miterlimit:10;}.cls-3{stroke-width:0.52px;}.cls-11,.cls-13,.cls-14,.cls-17,.cls-4,.cls-5{fill:none;}.cls-4{stroke:#040359;}.cls-4,.cls-5,.cls-6{stroke-linecap:round;}.cls-4,.cls-6{stroke-width:0.67px;}.cls-5{stroke:#df2338;stroke-width:0.34px;}.cls-7{fill:#3fa9f5;}.cls-8{fill:#c2e2ff;}.cls-10{font-size:18.81px;font-family:Gotham-Bold, Gotham;font-weight:700;}.cls-10,.cls-18{fill:#005cff;}.cls-11{stroke-width:1.21px;stroke-dasharray:3.62 3.62;}.cls-12{stroke-width:0.46px;}.cls-13{stroke-width:1.17px;stroke-dasharray:3.52 3.52;}.cls-14{stroke-width:0.76px;stroke-dasharray:2.28 2.28;}.cls-15{stroke-width:0.31px;}.cls-16{stroke-width:0.44px;}.cls-17{stroke-width:1.39px;stroke-dasharray:4.18 4.18;}.cls-19{fill:#0a0072;}.cls-20{stroke-width:1.17px;}.cls-21{stroke-width:0.36px;}.cls-22{stroke-width:0.37px;}.cls-23{stroke-width:0.25px;}.cls-24{stroke-width:0.25px;}</style></defs><title>占位插画</title><g class="cls-1"><path class="cls-2" d="M31.64,96.87S31,72.61,61.59,72.1c18.34,0,23.48-11,23.48-11s13.48-25.87,31.27-25.87,64.34,26.84,64.34,88.4c0,18.45-13,14.74-13,14.74H39.3Z"/><circle class="cls-3" cx="45.82" cy="61.53" r="16.57"/><line class="cls-4" x1="45.38" y1="61.53" x2="50.21" y2="56.46"/><line class="cls-5" x1="45.38" y1="61.53" x2="55.28" y2="68.03"/><line class="cls-6" x1="45.38" y1="61.53" x2="37.34" y2="54.34"/><rect class="cls-7" x="46.09" y="46.33" width="0.34" height="3.7"/><rect class="cls-7" x="36.52" y="49.92" width="0.34" height="3.7" transform="translate(-25.86 41.11) rotate(-45)"/><rect class="cls-7" x="32.29" y="59.24" width="0.34" height="3.7" transform="translate(-28.63 93.55) rotate(-90)"/><rect class="cls-7" x="35.89" y="68.82" width="0.34" height="3.7" transform="translate(11.59 146.13) rotate(-135)"/><rect class="cls-7" x="45.2" y="73.04" width="0.34" height="3.7" transform="translate(90.75 149.79) rotate(-180)"/><rect class="cls-7" x="54.78" y="69.45" width="0.34" height="3.7" transform="translate(144.22 82.85) rotate(135)"/><rect class="cls-7" x="59.01" y="60.13" width="0.34" height="3.7" transform="translate(121.16 2.8) rotate(90)"/><rect class="cls-7" x="55.41" y="50.55" width="0.34" height="3.7" transform="translate(53.33 -23.95) rotate(45)"/><polygon class="cls-8" points="130.78 87.19 125.62 85.07 129.4 81.58 125.82 73.98 120.3 74.73 121.83 69.82 114.93 65.03 110.51 68.44 109.39 63.43 101.01 62.73 98.9 67.89 95.41 64.11 87.81 67.69 88.56 73.22 83.65 71.69 78.86 78.59 82.27 83 77.25 84.13 76.55 92.5 81.71 94.62 77.93 98.1 81.51 105.7 87.04 104.95 85.5 109.86 92.4 114.66 96.82 111.24 97.94 116.26 106.32 116.96 108.43 111.8 111.92 115.58 119.52 112 118.77 106.47 123.68 108 128.47 101.1 125.06 96.69 130.08 95.56 130.78 87.19"/><polygon class="cls-9" points="124.32 87.82 120.39 86.21 123.27 83.55 120.54 77.76 116.33 78.33 117.5 74.6 112.24 70.94 108.88 73.55 108.02 69.72 101.65 69.19 100.03 73.12 97.38 70.24 91.59 72.97 92.16 77.18 88.42 76.01 84.77 81.27 87.37 84.63 83.55 85.49 83.01 91.87 86.94 93.48 84.07 96.13 86.79 101.92 91 101.35 89.83 105.09 95.09 108.74 98.45 106.14 99.31 109.96 105.69 110.5 107.3 106.56 109.95 109.44 115.74 106.72 115.17 102.51 118.91 103.67 122.56 98.42 119.96 95.06 123.78 94.2 124.32 87.82"/><text class="cls-10" transform="translate(86.79 95.61)">API</text><polyline class="cls-11" points="65.48 133.51 87.5 133.51 98.56 116.74"/><circle class="cls-12" cx="98.55" cy="116.74" r="1.17"/><line class="cls-13" x1="125.1" y1="102.9" x2="148.32" y2="102.9"/><line class="cls-14" x1="125.49" y1="77.11" x2="150.36" y2="77.11"/><polyline class="cls-13" points="110.38 113.49 120.69 130.45 159.03 130.45"/><circle class="cls-12" cx="110.65" cy="113.84" r="1.17"/><circle class="cls-12" cx="125.49" cy="77.11" r="1.17"/><circle class="cls-12" cx="125.13" cy="102.9" r="1.17"/><path class="cls-8" d="M154.22,81.39h-9.14a.55.55,0,0,1-.52-.72l4.93-14.48a.56.56,0,0,1,.52-.37h9.14a.54.54,0,0,1,.51.72L154.73,81A.54.54,0,0,1,154.22,81.39Z"/><path class="cls-15" d="M153.48,80.55h-9.13a.55.55,0,0,1-.52-.72l4.93-14.48a.54.54,0,0,1,.52-.37h9.13a.55.55,0,0,1,.52.72L154,80.18A.54.54,0,0,1,153.48,80.55Z"/><path class="cls-9" d="M144.35,80.23a.22.22,0,0,1-.19-.09.26.26,0,0,1,0-.21l4.93-14.48a.23.23,0,0,1,.22-.15h9.13a.22.22,0,0,1,.19.09.26.26,0,0,1,0,.21L153.7,80.08a.23.23,0,0,1-.22.15Z"/><path class="cls-8" d="M149.28,78.09a.62.62,0,0,1,.58.8,1,1,0,0,1-.94.77.62.62,0,0,1-.58-.81A1,1,0,0,1,149.28,78.09Z"/><path class="cls-8" d="M159.17,111.37H141.74a.76.76,0,0,1-.72-1l8.43-21.72a.77.77,0,0,1,.72-.52h17.42a.76.76,0,0,1,.72,1l-8.43,21.72A.74.74,0,0,1,159.17,111.37Z"/><path class="cls-16" d="M158.14,110.2H140.72a.76.76,0,0,1-.72-1l8.43-21.72a.77.77,0,0,1,.72-.52h17.42a.76.76,0,0,1,.72,1l-8.43,21.72A.74.74,0,0,1,158.14,110.2Z"/><path class="cls-9" d="M140.72,109.76a.31.31,0,0,1-.3-.42l8.43-21.72a.31.31,0,0,1,.3-.22h17.42a.32.32,0,0,1,.26.13.3.3,0,0,1,0,.29l-8.43,21.73a.3.3,0,0,1-.3.21Z"/><path class="cls-8" d="M150.73,106.78a.85.85,0,0,1,.8,1.12,1.38,1.38,0,0,1-1.31,1.06.85.85,0,0,1-.8-1.12A1.38,1.38,0,0,1,150.73,106.78Z"/><line class="cls-11" x1="67.42" y1="90.57" x2="78.36" y2="90.57"/><circle class="cls-12" cx="78.15" cy="90.56" r="1.17"/><line class="cls-11" x1="67.05" y1="113.17" x2="88.88" y2="113.17"/><circle class="cls-12" cx="88.67" cy="113.17" r="1.17"/><path class="cls-17" d="M172.83,113.25S209.89-16,78.07,42.84"/><polygon class="cls-18" points="98.17 34.82 87.81 37.92 94.38 32.75 90.18 30.45 72.35 44.7 104.99 38.54 98.17 34.82"/><polygon class="cls-19" points="94.77 35.84 94.38 32.75 94.38 32.75 87.81 37.92 94.77 35.84"/><rect class="cls-20" x="6.28" y="89.16" width="59.68" height="50.03" rx="1.2" transform="translate(72.24 228.35) rotate(-180)"/><rect class="cls-21" x="6.16" y="89.16" width="43.11" height="6.62" rx="1.2" transform="translate(55.43 184.94) rotate(-180)"/><rect class="cls-21" x="6.16" y="132.11" width="43.11" height="6.62" rx="1.2" transform="translate(55.43 270.85) rotate(-180)"/><rect class="cls-21" x="37.79" y="132.11" width="28.16" height="6.62" rx="1.2" transform="translate(103.75 270.85) rotate(-180)"/><rect class="cls-18" x="48.87" y="121.64" width="6.02" height="27.56" rx="0.9" transform="translate(187.3 83.55) rotate(90)"/><rect class="cls-9" x="63.38" y="133.49" width="0.67" height="4.17" transform="translate(127.43 271.15) rotate(-180)"/><rect class="cls-9" x="60.87" y="133.49" width="0.67" height="4.17" transform="translate(122.41 271.15) rotate(-180)"/><rect class="cls-9" x="58.36" y="133.49" width="0.67" height="4.17" transform="translate(117.39 271.15) rotate(-180)"/><rect class="cls-9" x="56.04" y="133.49" width="0.67" height="4.17" transform="translate(112.76 271.15) rotate(-180)"/><rect class="cls-9" x="53.56" y="133.49" width="0.67" height="4.17" transform="translate(107.8 271.15) rotate(-180)"/><rect class="cls-9" x="51.08" y="133.49" width="0.67" height="4.17" transform="translate(102.84 271.15) rotate(-180)"/><rect class="cls-9" x="45.81" y="133.49" width="0.67" height="4.17" transform="translate(181.72 89.43) rotate(90)"/><ellipse class="cls-9" cx="41.4" cy="135.58" rx="0.96" ry="1.49"/><rect class="cls-21" x="6.16" y="123.52" width="43.11" height="6.62" rx="1.2" transform="translate(55.43 253.66) rotate(-180)"/><rect class="cls-21" x="37.79" y="123.52" width="28.16" height="6.62" rx="1.2" transform="translate(103.75 253.66) rotate(-180)"/><rect class="cls-18" x="48.87" y="113.05" width="6.02" height="27.56" rx="0.9" transform="translate(178.71 74.96) rotate(90)"/><rect class="cls-9" x="63.38" y="124.9" width="0.67" height="4.17" transform="translate(127.43 253.97) rotate(-180)"/><rect class="cls-9" x="60.87" y="124.9" width="0.67" height="4.17" transform="translate(122.41 253.97) rotate(-180)"/><rect class="cls-9" x="58.36" y="124.9" width="0.67" height="4.17" transform="translate(117.39 253.97) rotate(-180)"/><rect class="cls-9" x="56.04" y="124.9" width="0.67" height="4.17" transform="translate(112.76 253.97) rotate(-180)"/><rect class="cls-9" x="53.56" y="124.9" width="0.67" height="4.17" transform="translate(107.8 253.97) rotate(-180)"/><rect class="cls-9" x="51.08" y="124.9" width="0.67" height="4.17" transform="translate(102.84 253.97) rotate(-180)"/><rect class="cls-9" x="45.81" y="124.9" width="0.67" height="4.17" transform="translate(173.13 80.84) rotate(90)"/><ellipse class="cls-9" cx="41.4" cy="126.99" rx="0.96" ry="1.49"/><rect class="cls-21" x="6.16" y="114.93" width="43.11" height="6.62" rx="1.2" transform="translate(55.43 236.48) rotate(-180)"/><rect class="cls-21" x="37.79" y="114.93" width="28.16" height="6.62" rx="1.2" transform="translate(103.75 236.48) rotate(-180)"/><rect class="cls-18" x="48.87" y="104.46" width="6.02" height="27.56" rx="0.9" transform="translate(170.12 66.37) rotate(90)"/><rect class="cls-9" x="63.38" y="116.31" width="0.67" height="4.17" transform="translate(127.43 236.79) rotate(-180)"/><rect class="cls-9" x="60.87" y="116.31" width="0.67" height="4.17" transform="translate(122.41 236.79) rotate(-180)"/><rect class="cls-9" x="58.36" y="116.31" width="0.67" height="4.17" transform="translate(117.39 236.79) rotate(-180)"/><rect class="cls-9" x="56.04" y="116.31" width="0.67" height="4.17" transform="translate(112.76 236.79) rotate(-180)"/><rect class="cls-9" x="53.56" y="116.31" width="0.67" height="4.17" transform="translate(107.8 236.79) rotate(-180)"/><rect class="cls-9" x="51.08" y="116.31" width="0.67" height="4.17" transform="translate(102.84 236.79) rotate(-180)"/><rect class="cls-9" x="45.81" y="116.31" width="0.67" height="4.17" transform="translate(164.54 72.25) rotate(90)"/><ellipse class="cls-9" cx="41.4" cy="118.4" rx="0.96" ry="1.49"/><rect class="cls-21" x="6.16" y="106.34" width="43.11" height="6.62" rx="1.2" transform="translate(55.43 219.3) rotate(-180)"/><rect class="cls-21" x="37.79" y="106.34" width="28.16" height="6.62" rx="1.2" transform="translate(103.75 219.3) rotate(-180)"/><rect class="cls-18" x="48.87" y="95.87" width="6.02" height="27.56" rx="0.9" transform="translate(161.53 57.78) rotate(90)"/><rect class="cls-9" x="63.38" y="107.72" width="0.67" height="4.17" transform="translate(127.43 219.61) rotate(-180)"/><rect class="cls-9" x="60.87" y="107.72" width="0.67" height="4.17" transform="translate(122.41 219.61) rotate(-180)"/><rect class="cls-9" x="58.36" y="107.72" width="0.67" height="4.17" transform="translate(117.39 219.61) rotate(-180)"/><rect class="cls-9" x="56.04" y="107.72" width="0.67" height="4.17" transform="translate(112.76 219.61) rotate(-180)"/><rect class="cls-9" x="53.56" y="107.72" width="0.67" height="4.17" transform="translate(107.8 219.61) rotate(-180)"/><rect class="cls-9" x="51.08" y="107.72" width="0.67" height="4.17" transform="translate(102.84 219.61) rotate(-180)"/><rect class="cls-9" x="45.81" y="107.72" width="0.67" height="4.17" transform="translate(155.95 63.66) rotate(90)"/><ellipse class="cls-9" cx="41.4" cy="109.81" rx="0.96" ry="1.49"/><rect class="cls-21" x="6.16" y="97.75" width="43.11" height="6.62" rx="1.2" transform="translate(55.43 202.12) rotate(-180)"/><rect class="cls-21" x="37.79" y="97.75" width="28.16" height="6.62" rx="1.2" transform="translate(103.75 202.12) rotate(-180)"/><rect class="cls-18" x="48.87" y="87.28" width="6.02" height="27.56" rx="0.9" transform="translate(152.94 49.18) rotate(90)"/><rect class="cls-9" x="63.38" y="99.13" width="0.67" height="4.17" transform="translate(127.43 202.43) rotate(-180)"/><rect class="cls-9" x="60.87" y="99.13" width="0.67" height="4.17" transform="translate(122.41 202.43) rotate(-180)"/><rect class="cls-9" x="58.36" y="99.13" width="0.67" height="4.17" transform="translate(117.39 202.43) rotate(-180)"/><rect class="cls-9" x="56.04" y="99.13" width="0.67" height="4.17" transform="translate(112.76 202.43) rotate(-180)"/><rect class="cls-9" x="53.56" y="99.13" width="0.67" height="4.17" transform="translate(107.8 202.43) rotate(-180)"/><rect class="cls-9" x="51.08" y="99.13" width="0.67" height="4.17" transform="translate(102.84 202.43) rotate(-180)"/><rect class="cls-9" x="45.81" y="99.13" width="0.67" height="4.17" transform="translate(147.36 55.07) rotate(90)"/><ellipse class="cls-9" cx="41.4" cy="101.22" rx="0.96" ry="1.49"/><rect class="cls-21" x="37.79" y="89.16" width="28.16" height="6.62" rx="1.2" transform="translate(103.75 184.94) rotate(-180)"/><rect class="cls-18" x="48.87" y="78.69" width="6.02" height="27.56" rx="0.9" transform="translate(144.34 40.59) rotate(90)"/><rect class="cls-9" x="63.38" y="90.54" width="0.67" height="4.17" transform="translate(127.43 185.25) rotate(-180)"/><rect class="cls-9" x="60.87" y="90.54" width="0.67" height="4.17" transform="translate(122.41 185.25) rotate(-180)"/><rect class="cls-9" x="58.36" y="90.54" width="0.67" height="4.17" transform="translate(117.39 185.25) rotate(-180)"/><rect class="cls-9" x="56.04" y="90.54" width="0.67" height="4.17" transform="translate(112.76 185.25) rotate(-180)"/><rect class="cls-9" x="53.56" y="90.54" width="0.67" height="4.17" transform="translate(107.8 185.25) rotate(-180)"/><rect class="cls-9" x="51.08" y="90.54" width="0.67" height="4.17" transform="translate(102.84 185.25) rotate(-180)"/><rect class="cls-9" x="45.81" y="90.54" width="0.67" height="4.17" transform="translate(138.76 46.48) rotate(90)"/><ellipse class="cls-9" cx="41.4" cy="92.63" rx="0.96" ry="1.49"/><rect class="cls-22" x="127.33" y="136.39" width="55.05" height="3.06" rx="1.3"/><rect class="cls-23" x="157.44" y="136.39" width="24.94" height="3.06" rx="1.3"/><path class="cls-24" d="M180.38,136.39H147.05a.78.78,0,0,1-.74-1.11l8.05-24.79a1.67,1.67,0,0,1,1.47-1.1h33.32a.77.77,0,0,1,.75,1.1l-8.05,24.79A1.68,1.68,0,0,1,180.38,136.39Z"/><path class="cls-8" d="M147.32,135.39l8-24.59a.7.7,0,0,1,.52-.42h33.06l-8,24.59a.68.68,0,0,1-.52.42Z"/><polygon class="cls-9" points="150.74 132.91 157.25 112.87 185.47 112.87 178.96 132.91 150.74 132.91"/><polygon class="cls-18" points="159.65 115.56 158.1 115.56 158.6 114.01 160.15 114.01 159.65 115.56"/><polygon class="cls-18" points="165.49 115.56 160.54 115.56 161.05 114.01 166 114.01 165.49 115.56"/><polygon class="cls-18" points="158.77 118.27 157.22 118.27 157.72 116.72 159.27 116.72 158.77 118.27"/><polygon class="cls-18" points="171.72 118.27 159.66 118.27 160.17 116.72 172.22 116.72 171.72 118.27"/><polygon class="cls-18" points="157.89 120.98 156.34 120.98 156.84 119.43 158.39 119.43 157.89 120.98"/><polygon class="cls-18" points="167.24 120.98 158.78 120.98 159.29 119.43 167.74 119.43 167.24 120.98"/><polygon class="cls-18" points="157.01 123.69 155.46 123.69 155.96 122.14 157.51 122.14 157.01 123.69"/><polygon class="cls-18" points="168.73 123.69 157.9 123.69 158.41 122.14 169.23 122.14 168.73 123.69"/><polygon class="cls-18" points="156.13 126.4 154.58 126.4 155.08 124.84 156.63 124.84 156.13 126.4"/><polygon class="cls-18" points="155.38 129.08 153.82 129.08 154.33 127.53 155.88 127.53 155.38 129.08"/><polygon class="cls-18" points="154.63 131.76 153.07 131.76 153.58 130.21 155.13 130.21 154.63 131.76"/><polygon class="cls-18" points="174.62 126.4 157.02 126.4 157.53 124.84 175.12 124.84 174.62 126.4"/><rect class="cls-7" x="17.24" y="139.19" width="165.52" height="0.61"/></g></svg>