<?xml version="1.0" encoding="utf-8"?>
<!-- Generator: Adobe Illustrator 26.0.2, SVG Export Plug-In . SVG Version: 6.00 Build 0)  -->
<svg version="1.1" id="图层_1" xmlns="http://www.w3.org/2000/svg" xmlns:xlink="http://www.w3.org/1999/xlink" x="0px" y="0px"
	 viewBox="0 0 20 20" style="enable-background:new 0 0 20 20;" xml:space="preserve">
<style type="text/css">
	.st0{fill:#FFFFFF;filter:url(#Adobe_OpacityMaskFilter);}
	
		.st1{mask:url(#path-1-inside-1_1439_25046_00000037650703137192944710000015185806798536325807_);fill:#999999;stroke:#333333;stroke-width:3.5625;}
	.st2{fill:#FFFFFF;stroke:#333333;stroke-width:1.7813;stroke-linejoin:round;}
	.st3{fill:none;stroke:#999999;stroke-width:1.7812;stroke-linecap:round;}
</style>
<defs>
	<filter id="Adobe_OpacityMaskFilter" filterUnits="userSpaceOnUse" x="-1.8" y="2" width="16.1" height="19.8">
		<feColorMatrix  type="matrix" values="1 0 0 0 0  0 1 0 0 0  0 0 1 0 0  0 0 0 1 0"/>
	</filter>
</defs>
<mask maskUnits="userSpaceOnUse" x="-1.8" y="2" width="16.1" height="19.8" id="path-1-inside-1_1439_25046_00000037650703137192944710000015185806798536325807_">
	<path class="st0" d="M1.2,3.8h10.1c0.7,0,1.2,0.5,1.2,1.2v13.9c0,0.7-0.5,1.2-1.2,1.2H1.2C0.5,20,0,19.5,0,18.8V4.9
		C0,4.3,0.5,3.8,1.2,3.8z"/>
</mask>
<path class="st1" d="M1.2,3.8h10.1c0.7,0,1.2,0.5,1.2,1.2v13.9c0,0.7-0.5,1.2-1.2,1.2H1.2C0.5,20,0,19.5,0,18.8V4.9
	C0,4.3,0.5,3.8,1.2,3.8z"/>
<path class="st2" d="M18.8,15.4H7.4c-0.2,0-0.3-0.1-0.3-0.3V1.2c0-0.2,0.1-0.3,0.3-0.3h7.3c0.1,0,0.1,0,0.2,0.1l2.4,2L19,4.4
	c0.1,0.1,0.1,0.1,0.1,0.2v10.4C19.1,15.2,19,15.4,18.8,15.4z"/>
<path class="st2" d="M18.8,5L15,1.2V5H18.8z"/>
<line class="st3" x1="9.6" y1="7.9" x2="16.6" y2="7.9"/>
<line class="st3" x1="9.6" y1="11.6" x2="16.6" y2="11.6"/>
</svg>
