<?xml version="1.0" encoding="utf-8"?>
<!-- Generator: Adobe Illustrator 26.0.2, SVG Export Plug-In . SVG Version: 6.00 Build 0)  -->
<svg version="1.1" id="图层_1" xmlns="http://www.w3.org/2000/svg" xmlns:xlink="http://www.w3.org/1999/xlink" x="0px" y="0px"
	 viewBox="0 0 20 20" style="enable-background:new 0 0 20 20;" xml:space="preserve">
<style type="text/css">
	.st0{fill:#999999;stroke:#333333;stroke-width:1.9;}
	.st1{fill:#FFFFFF;stroke:#333333;stroke-width:1.9;}
	.st2{fill:#333333;}
</style>
<path class="st0" d="M14.1,13.7L14.1,13.7L14.1,13.7l-5.6-1.9V5.7c0-0.9,0.7-1.6,1.6-1.6h7.4c0.9,0,1.6,0.7,1.6,1.6v9.4
	c0,0.2-0.2,0.4-0.4,0.3L14.1,13.7z"/>
<path class="st0" d="M1.4,15.4C1.2,15.5,1,15.3,1,15.1V5.7c0-0.9,0.7-1.6,1.6-1.6H10c0.9,0,1.6,0.7,1.6,1.6v6.1L6,13.7l0,0l0,0
	L1.4,15.4z"/>
<path class="st1" d="M6.3,1.6h7.4c0.9,0,1.6,0.7,1.6,1.6v14.2c0,0.2-0.2,0.4-0.5,0.3l-3.8-2c-0.6-0.3-1.4-0.3-2,0l-3.9,1.9
	c-0.2,0.1-0.5,0-0.5-0.3V3.2C4.7,2.3,5.4,1.6,6.3,1.6z"/>
<path class="st2" d="M9.6,6.5c0.1-0.3,0.6-0.3,0.7,0l0.5,1.3C11,7.9,11.1,8,11.2,8l1.4,0.1c0.4,0,0.5,0.5,0.2,0.7l-1,0.9
	c-0.1,0.1-0.2,0.3-0.1,0.4l0.3,1.3c0.1,0.3-0.3,0.6-0.6,0.4l-1.2-0.7c-0.1-0.1-0.3-0.1-0.4,0l-1.2,0.7C8.3,12,7.9,11.7,8,11.4
	l0.3-1.3c0-0.1,0-0.3-0.1-0.4l-1-0.9C6.9,8.6,7,8.2,7.4,8.1L8.8,8C8.9,8,9,7.9,9.1,7.8L9.6,6.5z"/>
</svg>
