<?xml version="1.0" encoding="utf-8"?>
<!-- Generator: Adobe Illustrator 26.0.2, SVG Export Plug-In . SVG Version: 6.00 Build 0)  -->
<svg version="1.1" id="图层_1" xmlns="http://www.w3.org/2000/svg" xmlns:xlink="http://www.w3.org/1999/xlink" x="0px" y="0px"
	 viewBox="0 0 20 20" style="enable-background:new 0 0 20 20;" xml:space="preserve">
<style type="text/css">
	.st0{fill:#999999;stroke:#333333;stroke-width:1.78;}
	.st1{fill:#FFFFFF;stroke:#333333;stroke-width:1.78;}
	.st2{fill:none;stroke:#999999;stroke-width:1.5;stroke-linecap:round;stroke-linejoin:round;}
</style>
<path class="st0" d="M2,4.9h12c0.6,0,1.1,0.5,1.1,1.1v12c0,0.6-0.5,1.1-1.1,1.1H2c-0.6,0-1.1-0.5-1.1-1.1V6C0.9,5.4,1.4,4.9,2,4.9z"
	/>
<path class="st1" d="M6,0.9h12c0.6,0,1.1,0.5,1.1,1.1v12c0,0.6-0.5,1.1-1.1,1.1H6c-0.6,0-1.1-0.5-1.1-1.1V2C4.9,1.4,5.4,0.9,6,0.9z"
	/>
<path class="st2" d="M8,5l4,6l4-6"/>
</svg>
