<?xml version="1.0" encoding="utf-8"?>
<!-- Generator: Adobe Illustrator 26.0.2, SVG Export Plug-In . SVG Version: 6.00 Build 0)  -->
<svg version="1.1" id="图层_1" xmlns="http://www.w3.org/2000/svg" xmlns:xlink="http://www.w3.org/1999/xlink" x="0px" y="0px"
	 viewBox="0 0 22 22" style="enable-background:new 0 0 22 22;" xml:space="preserve">
<style type="text/css">
	.st0{fill:#FFFFFF;filter:url(#Adobe_OpacityMaskFilter);}
	
		.st1{mask:url(#path-1-inside-1_1727_23317_00000068645141526361808030000009288913890222522279_);fill:#999999;stroke:#333333;stroke-width:3.5625;}
	.st2{fill:#FFFFFF;stroke:#333333;stroke-width:1.7812;}
	.st3{fill:#999999;}
</style>
<defs>
	<filter id="Adobe_OpacityMaskFilter" filterUnits="userSpaceOnUse" x="-0.8" y="-0.8" width="13.6" height="13.6">
		<feColorMatrix  type="matrix" values="1 0 0 0 0  0 1 0 0 0  0 0 1 0 0  0 0 0 1 0"/>
	</filter>
</defs>
<mask maskUnits="userSpaceOnUse" x="-0.8" y="-0.8" width="13.6" height="13.6" id="path-1-inside-1_1727_23317_00000068645141526361808030000009288913890222522279_">
	<path class="st0" d="M2.2,0.9h7.6c0.7,0,1.2,0.5,1.2,1.2v7.6c0,0.7-0.5,1.2-1.2,1.2H2.2C1.5,10.9,1,10.4,1,9.8V2.1
		C1,1.5,1.5,0.9,2.2,0.9z"/>
</mask>
<path class="st1" d="M2.2,0.9h7.6c0.7,0,1.2,0.5,1.2,1.2v7.6c0,0.7-0.5,1.2-1.2,1.2H2.2C1.5,10.9,1,10.4,1,9.8V2.1
	C1,1.5,1.5,0.9,2.2,0.9z"/>
<path class="st2" d="M16,12L16,12c2.3,0,4.1,1.8,4.1,4.1l0,0c0,2.3-1.8,4.1-4.1,4.1l0,0c-2.3,0-4.1-1.8-4.1-4.1l0,0
	C11.9,13.8,13.7,12,16,12z"/>
<path class="st3" d="M16,1.1l5,10H11L16,1.1z"/>
<path class="st3" d="M6,11.1l5,3.8l-1.9,6.2H2.9L1,14.9L6,11.1z"/>
</svg>
