<svg id="图层_1" data-name="图层 1" xmlns="http://www.w3.org/2000/svg" viewBox="0 0 200 140"><defs><style>.cls-1{opacity:0.9;}.cls-10,.cls-2{fill:#e8f4ff;}.cls-3{fill:#aed9fb;}.cls-4{fill:#ff0001;}.cls-5{fill:#427ecb;}.cls-6{fill:#649ffd;}.cls-7{fill:#bde1fc;}.cls-8{fill:#c1e0fa;}.cls-9{fill:#ff000b;}.cls-10{opacity:0.6;}.cls-11{fill:#afd8fb;}.cls-12{fill:#005bfe;}.cls-13{fill:#080071;}.cls-14,.cls-16,.cls-17,.cls-19{fill:#fff;}.cls-15,.cls-18{fill:#fe6e00;}.cls-16{opacity:0.5;}.cls-17{opacity:0.2;}.cls-18{opacity:0.3;}.cls-19{stroke:#000;stroke-miterlimit:10;stroke-width:0.54px;}.cls-20{fill:#3fa9f5;}</style></defs><title>占位插画</title><g class="cls-1"><path class="cls-2" d="M47.8,139.71s-3.95-22-20-35S3.1,37,49.46,31.6s25.47,25.21,88.12,19.1,68,55,22.16,89Z"/><rect class="cls-3" x="89.6" y="114.41" width="31.3" height="18.05" rx="0.65"/><rect class="cls-4" x="91.25" y="111.22" width="31.3" height="18.05" rx="0.65"/><rect class="cls-5" x="45.5" y="68.82" width="11.81" height="0.7"/><rect class="cls-6" x="39.64" y="57.08" width="43.6" height="21.3" rx="0.87"/><rect class="cls-7" x="41.56" y="53.8" width="43.6" height="21.3" rx="0.87"/><circle class="cls-6" cx="48.9" cy="61.46" r="4.62"/><rect class="cls-5" x="56.49" y="60.56" width="8.14" height="0.7"/><rect class="cls-5" x="56.49" y="62.54" width="10.02" height="0.7"/><rect class="cls-5" x="44.69" y="68.11" width="9.1" height="0.7"/><rect class="cls-5" x="44.69" y="70.09" width="6.27" height="0.7"/><rect class="cls-5" x="44.69" y="72.07" width="7.72" height="0.7"/><rect class="cls-8" x="102.09" y="59.14" width="50.78" height="33.76" rx="0.87"/><rect class="cls-9" x="105.39" y="53.74" width="50.78" height="33.76" rx="0.87"/><rect class="cls-10" x="108.31" y="57.11" width="7.15" height="22.66"/><rect class="cls-10" x="119.16" y="57.11" width="8.86" height="6.36"/><rect class="cls-10" x="131.52" y="57.11" width="8.86" height="6.36"/><rect class="cls-10" x="143.88" y="57.11" width="8.86" height="6.36"/><rect class="cls-10" x="119.16" y="65.61" width="8.86" height="6.36"/><rect class="cls-10" x="131.52" y="65.61" width="8.86" height="6.36"/><rect class="cls-10" x="143.88" y="65.61" width="8.86" height="6.36"/><rect class="cls-10" x="119.16" y="74.38" width="8.86" height="6.36"/><rect class="cls-10" x="131.52" y="74.38" width="8.86" height="6.36"/><rect class="cls-10" x="143.88" y="74.38" width="8.86" height="6.36"/><rect class="cls-11" x="66.09" y="26.56" width="37.67" height="21.3" rx="0.87"/><rect class="cls-12" x="68.62" y="22.93" width="37.67" height="21.3" rx="0.87"/><rect class="cls-10" x="71.47" y="25.3" width="7.15" height="1.25"/><rect class="cls-10" x="71.47" y="27.66" width="32.55" height="1.25"/><rect class="cls-10" x="71.47" y="30.37" width="7.15" height="1.33"/><rect class="cls-10" x="81.17" y="30.37" width="7.15" height="1.33"/><rect class="cls-10" x="90.74" y="30.37" width="7.15" height="1.33"/><rect class="cls-10" x="100.18" y="30.37" width="3.84" height="1.33"/><rect class="cls-10" x="71.47" y="32.91" width="7.15" height="1.33"/><rect class="cls-10" x="81.17" y="32.91" width="7.15" height="1.33"/><rect class="cls-10" x="90.74" y="32.91" width="7.15" height="1.33"/><rect class="cls-10" x="100.18" y="32.91" width="3.84" height="1.33"/><rect class="cls-10" x="71.47" y="35.44" width="7.15" height="1.33"/><rect class="cls-10" x="81.17" y="35.44" width="7.15" height="1.33"/><rect class="cls-10" x="90.74" y="35.44" width="7.15" height="1.33"/><rect class="cls-10" x="100.18" y="35.44" width="3.84" height="1.33"/><rect class="cls-10" x="71.47" y="37.98" width="7.15" height="1.33"/><rect class="cls-10" x="81.17" y="37.98" width="7.15" height="1.33"/><rect class="cls-10" x="90.74" y="37.98" width="7.15" height="1.33"/><rect class="cls-10" x="100.18" y="37.98" width="3.84" height="1.33"/><rect class="cls-13" x="48.41" y="83.42" width="108.16" height="20.62" rx="3.81"/><circle class="cls-14" cx="60.63" cy="93.66" r="6.97"/><polygon class="cls-15" points="56.28 90.99 56.28 93.19 58.81 91.77 58.81 97.44 60.43 98.28 60.43 88.8 56.28 90.99"/><polygon class="cls-15" points="60.78 88.8 60.78 98.28 62.38 97.31 62.38 94.62 63.7 95.37 63.7 93.54 62.5 92.99 62.5 91.75 64.82 93.19 64.82 91 60.78 88.8"/><rect class="cls-16" x="72.64" y="87.56" width="33.1" height="2.41"/><rect class="cls-16" x="72.64" y="93.66" width="11.1" height="6.6"/><rect class="cls-16" x="87.94" y="93.66" width="11.1" height="6.6"/><rect class="cls-16" x="103.23" y="93.66" width="11.1" height="6.6"/><rect class="cls-16" x="118.53" y="93.66" width="11.1" height="6.6"/><rect class="cls-17" x="65.8" y="107.09" width="7.72" height="4.59"/><rect class="cls-16" x="133.82" y="93.66" width="11.1" height="6.6"/><rect class="cls-13" x="28.7" y="108.56" width="68.2" height="12.92" rx="2.39"/><circle class="cls-14" cx="36.57" cy="115.11" r="3.96"/><rect class="cls-17" x="44.04" y="110.69" width="23.03" height="1.68"/><rect class="cls-17" x="44.04" y="114.94" width="7.72" height="4.59"/><rect class="cls-17" x="54.68" y="114.94" width="7.72" height="4.59"/><rect class="cls-17" x="75.96" y="114.94" width="7.72" height="4.59"/><polygon class="cls-18" points="35.79 116.41 33.11 116.41 34.62 114.85 37.3 114.85 35.79 116.41"/><polygon class="cls-18" points="37.16 115.76 34.47 115.76 35.98 114.2 38.66 114.2 37.16 115.76"/><polygon class="cls-18" points="38.52 115.11 35.84 115.11 37.34 113.54 40.03 113.54 38.52 115.11"/><path class="cls-19" d="M123.68,95.8s5.42-.35,7.36,2.38a6.44,6.44,0,0,1,.21,2.15c-.12,1,1.73,7.59,1.73,7.59"/><path class="cls-19" d="M131,98.18s3.66,1.53,3.72,4.15a20.43,20.43,0,0,0,1,5.26"/><path class="cls-19" d="M61.81,139.41a25.72,25.72,0,0,0,4.62-24S65.15,107,66.76,105s1.57,1.78,1.57,5.08v-6.19s.62-1.08,1.41-1.08.94.25.94.83V101.9s.79-1.41,1.53-1.41,1.78-.08,1.78,1.32.45,7.72.45,7.72S75,96,69.57,87.9c0,0,0-.4.86-.46s5.91,2.32,14.28,26.92c0,0,6.62-12.42,10.79-9.08,0,0-5.29,3.72-7.52,19.24s-5.69,14.89-5.69,14.89"/><path class="cls-19" d="M134.51,101.22s4.31,1,3.73,4.47,1,13,1,13,3.42,16.24,7.11,21.17"/><path class="cls-19" d="M126.05,139.88s-7.68-23.62-20.15-30.22c0,0-1.32-.61.55-1.13s3.5-1.21,8.31,2.23,7.13,1.1,6.8.27c0-2.14.57-9.38.57-9.38a5.13,5.13,0,0,0-1.08-1.69c-.58-.46-6.4-4.34-7.8-6.16s-2.68-4-1.73-5.78c0,0,.57-.08,1.44,1s5.53,4,8.3,5a7.11,7.11,0,0,1,2.42,1.75c2.76,2.78,5.85,8.22,5,13"/><rect class="cls-20" x="17.24" y="139.39" width="165.52" height="0.61"/></g></svg>