<svg id="图层_1" data-name="图层 1" xmlns="http://www.w3.org/2000/svg" viewBox="0 0 200 140"><defs><style>.cls-1{opacity:0.9;}.cls-2{fill:#e8f4ff;}.cls-3{fill:#c1e2fd;}.cls-13,.cls-14,.cls-15,.cls-4{fill:#fff;}.cls-5{fill:#090372;}.cls-6{fill:#005cff;}.cls-7,.cls-8{fill:none;stroke-linecap:round;}.cls-13,.cls-14,.cls-15,.cls-7,.cls-8{stroke:#3fa9f5;stroke-miterlimit:10;}.cls-7{stroke-width:1.3px;stroke-dasharray:3.91 3.91;}.cls-8{stroke-width:0.73px;stroke-dasharray:2.19 2.19;}.cls-9{fill:#c2e2ff;}.cls-10{fill:#0a0072;}.cls-11{fill:#0f01a4;}.cls-12{fill:#005dff;}.cls-13{stroke-width:0.87px;}.cls-14{stroke-width:0.59px;}.cls-15{stroke-width:0.58px;}.cls-16{fill:#b6d7ff;}.cls-17{fill:#005bff;}.cls-18{fill:#2f3c92;}.cls-19{fill:#d9283d;}.cls-20{fill:#3fa9f5;}</style></defs><title>占位插画</title><g class="cls-1"><path class="cls-2" d="M21.34,97.28s-.68-24.44,30.18-25c18.48,0,23.66-11.08,23.66-11.08s13.58-26.06,31.51-26.06,64.83,27,64.83,89.08c0,18.58-13.1,14.84-13.1,14.84H29.06Z"/><path class="cls-3" d="M18.4,119.33H40a0,0,0,0,1,0,0v17a3,3,0,0,1-3,3H21.38a3,3,0,0,1-3-3v-17a0,0,0,0,1,0,0Z"/><path class="cls-4" d="M32.87,119.33v19.91A7.56,7.56,0,0,0,40,131.7V119.33Z"/><path class="cls-5" d="M28.5,113.68s-4.6-.24-7.56-3.22-3.13-7.58-3.13-7.58,4.6.24,7.55,3.22S28.5,113.68,28.5,113.68Z"/><path class="cls-6" d="M26.55,101.17s-3.81-.07-6.17-2.45A9.9,9.9,0,0,1,18,92.53s3.81.07,6.17,2.46S26.55,101.17,26.55,101.17Z"/><path class="cls-6" d="M31.94,117.55s-2.26-4.88-.67-9.27,6.43-6.62,6.43-6.62,2.25,4.88.66,9.26S31.94,117.55,31.94,117.55Z"/><path class="cls-5" d="M29.38,103.44s0-3.85,2.3-5.87,6.1-1.46,6.1-1.46,0,3.85-2.29,5.87S29.38,103.44,29.38,103.44Z"/><path class="cls-6" d="M28.3,98s-1.75-2.37-1.24-4.68,3.1-3.69,3.1-3.69S31.91,92,31.4,94.26,28.3,98,28.3,98Z"/><rect class="cls-6" x="25.87" y="100.77" width="0.68" height="18.56"/><rect class="cls-5" x="27.63" y="112.99" width="0.68" height="6.33"/><rect class="cls-5" x="29.38" y="102.88" width="0.68" height="16.45"/><rect class="cls-6" x="31.71" y="115.74" width="0.68" height="3.59"/><circle class="cls-7" cx="135.52" cy="85.86" r="40.07"/><circle class="cls-8" cx="64.97" cy="93.82" r="22.46"/><path class="cls-9" d="M67.31,131,83.62,80.78a1.4,1.4,0,0,1,1.06-.85h67.53L135.9,130.16a1.41,1.41,0,0,1-1.06.85Z"/><polygon class="cls-6" points="71.21 46.12 55.71 50.76 65.54 43.02 59.26 39.59 32.6 60.89 81.41 51.69 71.21 46.12"/><polygon class="cls-10" points="66.13 47.63 65.54 43.02 65.54 43.02 55.71 50.76 66.13 47.63"/><circle class="cls-2" cx="156.9" cy="55.2" r="15.94" transform="translate(59.48 190.01) rotate(-73.53)"/><circle class="cls-2" cx="128.19" cy="47.41" r="9.13" transform="translate(46.38 156.9) rotate(-73.53)"/><circle class="cls-2" cx="141.71" cy="63.76" r="8.83"/><path class="cls-11" d="M177.78,47.2l-4.48-.69L175.63,43l-4.27-5.34-4.23,1.64.29-4.17-6.37-2.49L158.2,36.2l-1.84-3.76-6.75,1-.7,4.48-3.47-2.33-5.34,4.27,1.63,4.23-4.17-.28-2.49,6.36,3.53,2.85-3.75,1.84,1,6.76,4.48.7L138,65.82l4.27,5.34,4.23-1.64-.29,4.17,6.37,2.5,2.84-3.54,1.84,3.76,6.76-1,.7-4.48,3.47,2.33L173.55,69l-1.63-4.23,4.17.29,2.49-6.37-3.53-2.85L178.8,54ZM158.92,68.26a14,14,0,1,1,11.74-15.93A14,14,0,0,1,158.92,68.26Z"/><path class="cls-12" d="M141.54,48l-.68-4.44-2.43.36a10.87,10.87,0,0,0-2-3.43L138,38.37l-3.61-2.67-1.46,2a11,11,0,0,0-3.81-1l-.39-2.57-4.44.67.36,2.44a10.77,10.77,0,0,0-3.43,1.95l-2.09-1.54-2.67,3.61,2,1.46a10.79,10.79,0,0,0-1,3.81l-2.57.39.67,4.45,2.43-.37a10.79,10.79,0,0,0,2,3.43l-1.55,2.1L122,59.12l1.45-2a10.58,10.58,0,0,0,3.82,1l.39,2.57,4.44-.67-.37-2.43a10.79,10.79,0,0,0,3.43-2l2.1,1.55,2.67-3.62-2-1.45A10.8,10.8,0,0,0,139,48.36Zm-20.94.59A7.67,7.67,0,1,1,129.34,55,7.67,7.67,0,0,1,120.6,48.56Z"/><rect class="cls-13" x="26.46" y="132.16" width="128.38" height="7.13" rx="2.56"/><rect class="cls-14" x="96.69" y="132.16" width="58.16" height="7.13" rx="2.56"/><path class="cls-15" d="M150.19,132.16H72.47a1.8,1.8,0,0,1-1.74-2.58l18.78-57.8a3.88,3.88,0,0,1,3.41-2.58h77.72a1.81,1.81,0,0,1,1.74,2.58l-18.78,57.8A3.87,3.87,0,0,1,150.19,132.16Z"/><path class="cls-9" d="M73.09,129.84,91.71,72.5a1.6,1.6,0,0,1,1.21-1H170l-18.63,57.35a1.58,1.58,0,0,1-1.2,1Z"/><polygon class="cls-4" points="81.07 124.04 96.25 77.32 162.04 77.32 146.87 124.04 81.07 124.04"/><polygon class="cls-6" points="101.83 83.6 98.22 83.6 99.39 79.98 103.01 79.98 101.83 83.6"/><polygon class="cls-6" points="115.46 83.6 103.92 83.6 105.09 79.98 116.63 79.98 115.46 83.6"/><polygon class="cls-6" points="99.78 89.92 96.16 89.92 97.34 86.3 100.96 86.3 99.78 89.92"/><polygon class="cls-6" points="129.97 89.92 101.87 89.92 103.04 86.3 131.15 86.3 129.97 89.92"/><polygon class="cls-6" points="97.73 96.23 94.11 96.23 95.29 92.61 98.91 92.61 97.73 96.23"/><polygon class="cls-6" points="119.53 96.23 99.81 96.23 100.99 92.61 120.71 92.61 119.53 96.23"/><polygon class="cls-6" points="95.68 102.55 92.06 102.55 93.23 98.93 96.86 98.93 95.68 102.55"/><polygon class="cls-6" points="123 102.55 97.76 102.55 98.94 98.93 124.18 98.93 123 102.55"/><polygon class="cls-6" points="93.63 108.86 90.01 108.86 91.18 105.24 94.8 105.24 93.63 108.86"/><polygon class="cls-6" points="91.88 115.12 88.25 115.12 89.43 111.5 93.05 111.5 91.88 115.12"/><polygon class="cls-6" points="90.12 121.38 86.5 121.38 87.68 117.76 91.3 117.76 90.12 121.38"/><polygon class="cls-6" points="136.74 108.86 95.71 108.86 96.89 105.24 137.92 105.24 136.74 108.86"/><path class="cls-16" d="M90.42,109.19H51.12a.59.59,0,0,1-.56-.84l3.26-10a1.26,1.26,0,0,1,1.11-.83H94.22a.59.59,0,0,1,.57.83l-3.27,10A1.26,1.26,0,0,1,90.42,109.19Z"/><path class="cls-3" d="M90,108.15H50.72a.58.58,0,0,1-.56-.83l3.26-10a1.26,1.26,0,0,1,1.11-.83h39.3a.58.58,0,0,1,.56.83l-3.27,10A1.25,1.25,0,0,1,90,108.15Z"/><path class="cls-17" d="M59.36,105.8H54a.58.58,0,0,1-.56-.83l1.74-5.35a1.25,1.25,0,0,1,1.1-.83h5.35a.59.59,0,0,1,.57.83L60.47,105A1.26,1.26,0,0,1,59.36,105.8Z"/><polygon class="cls-2" points="60.2 101 57.17 103.28 56.24 101.91 55.78 102.26 56.94 103.98 56.94 103.98 57.41 103.63 60.43 101.35 60.2 101"/><polygon class="cls-18" points="79.74 100.52 66 100.52 66.15 100.05 79.9 100.05 79.74 100.52"/><polygon class="cls-18" points="72.83 102.64 65.31 102.64 65.47 102.17 72.99 102.17 72.83 102.64"/><polygon class="cls-18" points="80.78 104.54 64.69 104.54 64.85 104.07 80.94 104.07 80.78 104.54"/><polygon class="cls-18" points="83.89 102.64 76.37 102.64 76.53 102.17 84.05 102.17 83.89 102.64"/><path class="cls-16" d="M94.27,92.79H55a.59.59,0,0,1-.57-.83l3.27-10a1.25,1.25,0,0,1,1.1-.83h39.3a.58.58,0,0,1,.56.83L95.38,92A1.26,1.26,0,0,1,94.27,92.79Z"/><path class="cls-3" d="M94,91.54H54.66a.58.58,0,0,1-.56-.83l3.26-10a1.27,1.27,0,0,1,1.11-.84H97.76a.59.59,0,0,1,.57.84l-3.27,10A1.25,1.25,0,0,1,94,91.54Z"/><path class="cls-19" d="M63.3,89.2H58a.59.59,0,0,1-.56-.84L59.13,83a1.25,1.25,0,0,1,1.1-.83h5.35a.58.58,0,0,1,.56.83l-1.73,5.35A1.27,1.27,0,0,1,63.3,89.2Z"/><polygon class="cls-18" points="83.68 83.92 69.94 83.92 70.09 83.44 83.83 83.44 83.68 83.92"/><polygon class="cls-18" points="76.77 86.03 69.25 86.03 69.4 85.56 76.92 85.56 76.77 86.03"/><polygon class="cls-18" points="84.72 87.94 68.63 87.94 68.78 87.46 84.88 87.46 84.72 87.94"/><polygon class="cls-18" points="87.83 86.03 80.31 86.03 80.46 85.56 87.98 85.56 87.83 86.03"/><polygon class="cls-2" points="62.58 85.98 61.71 86.63 62.57 83.99 62.06 83.99 61.2 86.63 60.76 85.98 60.29 86.34 60.9 87.25 61.14 87.6 62.82 86.34 62.58 85.98"/><rect class="cls-20" x="17.24" y="139.19" width="165.52" height="0.61"/></g></svg>