<?xml version="1.0" encoding="utf-8"?>
<!-- Generator: Adobe Illustrator 24.0.0, SVG Export Plug-In . SVG Version: 6.00 Build 0)  -->
<svg version="1.1" id="图层_1" xmlns="http://www.w3.org/2000/svg" xmlns:xlink="http://www.w3.org/1999/xlink" x="0px" y="0px"
	 viewBox="0 0 200 140" style="enable-background:new 0 0 200 140;" xml:space="preserve">
<style type="text/css">
	.st0{opacity:0.9;}
	.st1{fill:#E8F4FF;}
	.st2{fill:#C1E2FB;}
	.st3{fill:#080071;}
	.st4{fill:#005CFF;}
	.st5{fill:#C1E2FD;}
	.st6{fill:#E7F5FF;}
	.st7{fill:#0B0075;}
	.st8{fill:#E9F5FF;}
	.st9{fill:#FFFFFF;}
	.st10{fill:#FFFFFF;stroke:#3FA9F5;stroke-width:0.88;stroke-miterlimit:10;}
	.st11{fill:#FFFFFF;stroke:#3FA9F5;stroke-width:0.59;stroke-miterlimit:10;}
	.st12{fill:#C2E2FF;}
	.st13{fill:#FD2C25;}
	.st14{fill:#17BC19;}
	.st15{fill:#1851D1;}
	.st16{fill:#AED8FB;}
	.st17{opacity:0.6;fill:#005CFF;enable-background:new    ;}
	.st18{fill:#3FA9F5;}
</style>
<title>占位插画</title>
<g class="st0">
	<path class="st1" d="M36.9,139c0,0-26.9-13.8-26.9-36.6s16.1-41.5,32.9-41.5s48.6,2.6,64.7-23.9s70.3,3.7,80.8,58.3
		S155.5,139,155.5,139H36.9z"/>
	<circle class="st2" cx="51.5" cy="38.1" r="2.7"/>
	<circle class="st2" cx="28.8" cy="55.9" r="2.7"/>
	
		<rect x="51.3" y="22.4" transform="matrix(0.8166 -0.5771 0.5771 0.8166 -8.2051 40.2498)" class="st3" width="15.9" height="21.4"/>
	<ellipse transform="matrix(0.8166 -0.5771 0.5771 0.8166 -12.1086 45.4019)" class="st4" cx="65.4" cy="41.8" rx="7.9" ry="2.4"/>
	<ellipse transform="matrix(0.8164 -0.5775 0.5775 0.8164 -4.2104 35.2481)" class="st3" cx="53.3" cy="24.2" rx="8" ry="2.4"/>
	
		<rect x="27.5" y="45.7" transform="matrix(0.7882 -0.6154 0.6154 0.7882 -20.0202 34.9263)" class="st2" width="26.5" height="1.8"/>
	<polygon class="st2" points="51.5,132.4 29.3,57.1 27.6,57.6 49.8,132.9 	"/>
	<path class="st5" d="M41.2,86.1l5.8,36.6c0.1,0.4-0.2,0.7-0.5,0.7l-2.6,0.4c-0.4,0.1-0.7-0.2-0.7-0.5l-5.8-36.6
		c-0.1-0.4,0.2-0.7,0.5-0.7l2.6-0.4C40.8,85.5,41.1,85.7,41.2,86.1z"/>
	<path class="st6" d="M44.5,85.6h4c0.2,0,0.3,0.1,0.3,0.3v37.3c0,0.2-0.1,0.3-0.3,0.3h-4c-0.2,0-0.3-0.1-0.3-0.3V85.9
		C44.2,85.7,44.3,85.6,44.5,85.6z"/>
	<path class="st7" d="M59,87l3.7,0.4c0.2,0,0.4,0.2,0.4,0.5l0,0l-3.7,37.3l0,0l-4.6-0.5l0,0l3.7-37.3C58.6,87.1,58.8,86.9,59,87z"/>
	
		<rect x="41.9" y="105.8" transform="matrix(9.827767e-02 -0.9952 0.9952 9.827767e-02 -54.6078 156.0004)" class="st8" width="33.7" height="4.6"/>
	<path class="st9" d="M52.9,85.8l3.7,0c0.2,0,0.5,0.2,0.5,0.4l0.2,37c0,0.2-0.2,0.5-0.4,0.5l-3.7,0c-0.2,0-0.5-0.2-0.5-0.4l-0.2-37
		C52.4,86,52.6,85.8,52.9,85.8z"/>
	<path class="st4" d="M52.4,89.9l3.5,0.4c0.3,0,0.5,0.3,0.5,0.6l0,0L51.7,128l0,0l-4.5-0.6l0,0l4.6-37.1
		C51.9,90,52.1,89.8,52.4,89.9L52.4,89.9z"/>
	
		<rect x="34.9" y="108.9" transform="matrix(0.1243 -0.9922 0.9922 0.1243 -65.2312 148.5202)" class="st3" width="33.3" height="4.6"/>
	<path class="st9" d="M38,106.8h27.6l0,0v31.9c0,0.7-0.6,1.3-1.3,1.3l0,0H39.2c-0.7,0-1.2-0.6-1.2-1.3V106.8L38,106.8z"/>
	<path class="st5" d="M43.6,110v24c0,0,3.7,6.6,9.8,0s3-11-1.2-11.7s-3-3.9-0.7-8.2s-3.6-4.1-3.6-4.1H43.6z"/>
	<path class="st10" d="M36.7,132.3h127.8c0.6,0,1.1,0.5,1.1,1.1v5c0,0.6-0.5,1.1-1.1,1.1H36.7c-0.6,0-1.1-0.5-1.1-1.1v-5
		C35.6,132.8,36.1,132.3,36.7,132.3z"/>
	<path class="st11" d="M107.8,132.3h56.7c0.6,0,1.1,0.5,1.1,1.1v5c0,0.6-0.5,1.1-1.1,1.1h-56.7c-0.6,0-1.1-0.5-1.1-1.1v-5
		C106.7,132.8,107.2,132.3,107.8,132.3z"/>
	<path class="st11" d="M160.9,132.3H82.2c-1,0.1-1.9-0.7-1.9-1.7c0-0.3,0-0.6,0.2-0.9l19-58.5c0.5-1.5,1.9-2.5,3.4-2.6h78.7
		c1-0.1,1.9,0.7,1.9,1.7c0,0.3,0,0.6-0.2,0.9l-19,58.5C163.8,131.2,162.5,132.2,160.9,132.3z"/>
	<path class="st12" d="M82.8,130l18.8-58c0.2-0.5,0.7-0.9,1.2-1H181l-18.9,58c-0.2,0.5-0.7,0.9-1.2,1H82.8z"/>
	<polygon class="st9" points="90.9,124.1 106.3,76.8 172.9,76.8 157.5,124.1 	"/>
	<path class="st13" d="M114.5,87.6l0.9,26.5c0,0,1.4,3.1,4.2,0s17.9-26.5,17.9-26.5h-5.4l-12.3,20l-0.1-20H114.5z"/>
	<path class="st14" d="M144.4,87.2L144.4,87.2c-3.7,0-7.7,3-8.9,6.7l-2.2,6.7h3.6l2.2-6.8c0.6-1.8,2.3-3,4.2-3.2
		c1.2-0.1,2.3,0.9,2.3,2.1c0,0.4-0.1,0.7-0.2,1.1l-2.2,6.8h3.6l2.2-6.7C150.1,90.2,148.1,87.2,144.4,87.2z"/>
	<path class="st15" d="M130.6,109L130.6,109c-1.2,3.7,0.8,6.7,4.5,6.7h6.7l1.2-3.6h-6.8c-1.7,0-2.7-1.4-2.1-3.2
		c0.6-1.8,2.3-3,4.2-3.2h6.8l1.1-3.6h-6.7C135.5,102.6,132,105.2,130.6,109z"/>
	<polygon class="st16" points="109.9,69.3 72.2,69.3 76.7,55.6 114.4,55.6 	"/>
	<polygon class="st9" points="112.4,67.4 74.7,67.4 79.1,53.7 116.9,53.7 	"/>
	<ellipse transform="matrix(0.7617 -0.648 0.648 0.7617 -11.1262 85.6027)" class="st4" cx="110.8" cy="57.9" rx="1.8" ry="1.3"/>
	<ellipse transform="matrix(0.7617 -0.648 0.648 0.7617 -17.2428 83.4453)" class="st4" cx="104.8" cy="65.2" rx="0.5" ry="0.3"/>
	<ellipse transform="matrix(0.7617 -0.648 0.648 0.7617 -17.6427 82.3624)" class="st4" cx="103.1" cy="65.2" rx="0.5" ry="0.3"/>
	<ellipse transform="matrix(0.7617 -0.648 0.648 0.7617 -18.0342 81.2894)" class="st4" cx="101.5" cy="65.2" rx="0.5" ry="0.3"/>
	<polygon class="st4" points="107.6,57.7 103.5,57.7 103.8,57 107.9,57 	"/>
	<polygon class="st4" points="107.2,58.9 103.1,58.9 103.4,58.2 107.5,58.2 	"/>
	<polygon class="st17" points="106.4,61.5 102.3,61.5 102.4,61.2 106.5,61.2 	"/>
	<polygon class="st17" points="100.4,61.5 91,61.5 91.1,61.2 100.5,61.2 	"/>
	<polygon class="st17" points="105.9,63 101.8,63 101.9,62.7 106,62.7 	"/>
	<polygon class="st17" points="99.9,63 91.7,63 91.9,62.7 100,62.7 	"/>
	<polygon class="st4" points="101.7,57.7 97.5,57.7 97.8,57 101.9,57 	"/>
	<polygon class="st16" points="104.8,93.3 67,93.3 71.5,79.6 109.2,79.6 	"/>
	<polygon class="st9" points="107.3,91.5 69.5,91.5 74,77.7 111.7,77.7 	"/>
	<ellipse transform="matrix(0.7617 -0.648 0.648 0.7617 -27.9122 87.9844)" class="st4" cx="105.6" cy="81.9" rx="1.8" ry="1.3"/>
	<ellipse transform="matrix(0.7617 -0.648 0.648 0.7617 -34.0319 85.8234)" class="st4" cx="99.6" cy="89.2" rx="0.5" ry="0.3"/>
	<ellipse transform="matrix(0.7617 -0.648 0.648 0.7617 -34.4318 84.7405)" class="st4" cx="98" cy="89.2" rx="0.5" ry="0.3"/>
	<ellipse transform="matrix(0.7617 -0.648 0.648 0.7617 -34.8233 83.6675)" class="st4" cx="96.3" cy="89.2" rx="0.5" ry="0.3"/>
	<polygon class="st4" points="102.5,81.7 98.4,81.7 98.6,81 102.7,81 	"/>
	<polygon class="st4" points="102.1,82.9 98,82.9 98.2,82.2 102.3,82.2 	"/>
	<polygon class="st17" points="101.2,85.5 97.1,85.5 97.2,85.2 101.3,85.2 	"/>
	<polygon class="st17" points="95.2,85.5 85.8,85.5 85.9,85.2 95.4,85.2 	"/>
	<polygon class="st17" points="100.7,87.1 96.6,87.1 96.7,86.7 100.8,86.7 	"/>
	<polygon class="st17" points="94.8,87.1 86.6,87.1 86.7,86.7 94.9,86.7 	"/>
	<polygon class="st4" points="96.5,81.7 92.4,81.7 92.6,81 96.7,81 	"/>
	<rect x="17.2" y="139.4" class="st18" width="165.5" height="0.6"/>
</g>
</svg>
