<?xml version="1.0" standalone="no"?><!DOCTYPE svg PUBLIC "-//W3C//DTD SVG 1.1//EN" "http://www.w3.org/Graphics/SVG/1.1/DTD/svg11.dtd"><svg t="1590657135111" class="icon" viewBox="0 0 1024 1024" version="1.1" xmlns="http://www.w3.org/2000/svg" p-id="5398" xmlns:xlink="http://www.w3.org/1999/xlink" width="200" height="200"><defs><style type="text/css"></style></defs><path d="M512 0c282.331429 0 512 229.668571 512 512S794.331429 1024 512 1024 0 794.331429 0 512 229.668571 0 512 0z" fill="#FF684E" p-id="5399"></path><path d="M782.628571 754.834286h-541.257142c-29.257143 0-54.125714-24.868571-54.125715-54.125715V323.291429c0-29.257143 24.868571-54.125714 54.125715-54.125715h539.794285c29.257143 0 54.125714 24.868571 54.125715 54.125715v377.417142c0 30.72-23.405714 54.125714-52.662858 54.125715zM279.405714 323.291429L512 555.885714l232.594286-232.594285H279.405714z m503.222857 38.034285L531.017143 611.474286c-10.24 10.24-26.331429 10.24-36.571429 0L241.371429 361.325714V687.542857c0 7.314286 4.388571 13.165714 11.702857 13.165714h514.925714c7.314286 0 13.165714-4.388571 13.165714-11.702857V361.325714z" fill="#FFFFFF" p-id="5400"></path></svg>