<svg id="图层_1" data-name="图层 1" xmlns="http://www.w3.org/2000/svg" viewBox="0 0 200 140"><defs><style>.cls-1{opacity:0.9;}.cls-2{fill:#e8f4ff;}.cls-3{fill:#c1e2fd;}.cls-4{fill:#005cff;}.cls-5{fill:#0f01a4;}.cls-6{fill:#fff;}.cls-7{fill:#bee2ff;}.cls-8{fill:#015eff;}.cls-9{fill:#c0e1fc;}.cls-10{fill:#f3edfa;}.cls-11,.cls-12{fill:none;stroke:#3fa9f5;stroke-linecap:round;stroke-miterlimit:10;stroke-width:1.07px;}.cls-12{stroke-dasharray:3.32 3.32;}.cls-13{fill:#0163ff;}.cls-14{fill:#3fa9f5;}</style></defs><title>占位插画</title><g class="cls-1"><path class="cls-2" d="M68.13,139.9S31.34,128.54,25.69,97.46C23.76,86.85,33.4,77.2,40.16,75.27s38.58-3.86,43.4-31.83c0,0,8.68-42.44,38.59-19.29,8.68,6.75,60.77,70.41,45.33,103.21-4.82,10.61-7.71,12.54-7.71,12.54Z"/><path class="cls-3" d="M44.66,72.1s-6-.75-7.06,15.19-9.87,15.09-10,23.82,15.78,13.11,19.44,1.25-6.4-12.12,1.32-28C55.53,69.61,44.66,72.1,44.66,72.1Z"/><path class="cls-4" d="M19.06,93.28S15.24,87,20.31,84.77c0,0,3.86-.79,4.06,4.25s.44,9.81,5.93,14.47c3.86,3.38,10.18,9.68.34,15.6a8,8,0,0,1-10-4s-1.58-4.89.58-8.46S19.85,93.44,19.06,93.28Z"/><rect class="cls-5" x="28.24" y="108.64" width="0.25" height="14.53" transform="translate(-10.46 3.07) rotate(-5.24)"/><rect class="cls-5" x="36.93" y="102.12" width="0.25" height="21.36" transform="translate(28.74 -5.64) rotate(14.17)"/><polygon class="cls-3" points="21.39 123.19 24.49 139.51 39.87 139.51 42.25 123.19 21.39 123.19"/><path class="cls-6" d="M81.53,51.05h69.25l-12.07,69.26s-1.05,19-11.36,19-14.89-14.18-13.95-19.69H70Z"/><path class="cls-4" d="M58.51,139.29h68.77l-.87-.08c-9.64-.84-13.92-14.27-13-19.61H70l-23.8.16C46.14,121.26,45.54,135.25,58.51,139.29Z"/><polygon class="cls-3" points="113.62 80.59 82.95 80.59 83.66 76.54 114.33 76.54 113.62 80.59"/><polygon class="cls-3" points="128.43 62.64 118.89 62.64 119.11 61.44 128.64 61.44 128.43 62.64"/><polygon class="cls-3" points="143.59 62.64 134.05 62.64 134.26 61.44 143.8 61.44 143.59 62.64"/><polygon class="cls-3" points="134.95 65.57 118.38 65.57 118.59 64.36 135.16 64.36 134.95 65.57"/><polygon class="cls-3" points="124.68 69.02 117.77 69.02 117.98 67.81 124.89 67.81 124.68 69.02"/><polygon class="cls-3" points="95.81 62.64 86.27 62.64 86.49 61.44 96.02 61.44 95.81 62.64"/><polygon class="cls-3" points="102.33 65.57 85.76 65.57 85.97 64.36 102.54 64.36 102.33 65.57"/><polygon class="cls-3" points="92.06 69.02 85.15 69.02 85.36 67.81 92.27 67.81 92.06 69.02"/><polygon class="cls-3" points="102.12 87.78 81.68 87.78 82.11 85.36 102.54 85.36 102.12 87.78"/><polygon class="cls-3" points="80.99 100.57 79.42 100.57 79.85 98.15 81.42 98.15 80.99 100.57"/><polygon class="cls-3" points="79.79 107.36 78.23 107.36 78.65 104.95 80.22 104.95 79.79 107.36"/><polygon class="cls-3" points="78.6 114.16 77.03 114.16 77.45 111.74 79.02 111.74 78.6 114.16"/><polygon class="cls-3" points="126.91 100.57 112.99 100.57 113.42 98.15 127.34 98.15 126.91 100.57"/><polygon class="cls-3" points="109.73 100.57 83.34 100.57 83.77 98.15 110.16 98.15 109.73 100.57"/><polygon class="cls-3" points="95.34 107.36 82.14 107.36 82.57 104.95 95.77 104.95 95.34 107.36"/><polygon class="cls-3" points="89.96 114.16 80.95 114.16 81.37 111.74 90.39 111.74 89.96 114.16"/><polygon class="cls-3" points="138.22 92.85 80.75 92.85 80.96 92.09 138.43 92.09 138.22 92.85"/><polygon class="cls-3" points="134 117.91 76.53 117.91 76.74 117.14 134.22 117.14 134 117.91"/><path class="cls-7" d="M130.17,86.56H89.66a7.06,7.06,0,0,1-7-8.28l7.18-40.73a7.07,7.07,0,0,1,7-5.83h40.51a7.05,7.05,0,0,1,7,8.28l-7.18,40.73A7.05,7.05,0,0,1,130.17,86.56Z"/><path class="cls-6" d="M128.56,85.37H88.05a7.06,7.06,0,0,1-7-8.28l7.18-40.73a7.05,7.05,0,0,1,7-5.83h40.51a7.06,7.06,0,0,1,6.95,8.28l-7.18,40.73A7.07,7.07,0,0,1,128.56,85.37Z"/><path class="cls-5" d="M130.78,36.36h-32A4.57,4.57,0,0,0,94.42,40l-2,11.66a3,3,0,0,0,3,3.66h2.81L93.5,81.92l7.66-6,5.56,6,7.66-6,5.56,6,4.69-26.58h2.8a4.55,4.55,0,0,0,4.31-3.66L133.8,40A3,3,0,0,0,130.78,36.36ZM118,68.66H100.12l.51-2.88h17.88Zm1.41-8H101.53l.51-2.89h17.88Zm7.87-9.26H96.93l1.93-10.92H129.2Z"/><path class="cls-4" d="M104.55,49.55a2.2,2.2,0,0,1-1.66-.65,2,2,0,0,1-.39-1.5l.85-.13a1.45,1.45,0,0,0,.23,1.15,1.32,1.32,0,0,0,1.09.47l.52-2.93a3.26,3.26,0,0,1-1.37-.52,1.42,1.42,0,0,1-.5-1.47,2.24,2.24,0,0,1,1.12-1.59A3.2,3.2,0,0,1,105.9,42l.08-.49h.54l-.09.5a2,2,0,0,1,1.49.65,1.71,1.71,0,0,1,.4,1.24l-.83.15a1.21,1.21,0,0,0-1.17-1.37l-.47,2.67a3.55,3.55,0,0,1,1.54.61,1.44,1.44,0,0,1,.45,1.51,2.38,2.38,0,0,1-1.18,1.74,3.4,3.4,0,0,1-1.56.4l-.16.87h-.54Zm1.23-6.92a2.17,2.17,0,0,0-1,.33,1.53,1.53,0,0,0-.64,1,.91.91,0,0,0,.53,1.05,2.9,2.9,0,0,0,.7.22Zm-.57,6.27a2.18,2.18,0,0,0,1.11-.34,1.64,1.64,0,0,0,.72-1.13,1,1,0,0,0-.29-1,2.73,2.73,0,0,0-1-.38Z"/><path class="cls-4" d="M112,49.55a2.21,2.21,0,0,1-1.67-.65,2,2,0,0,1-.38-1.5l.85-.13a1.45,1.45,0,0,0,.23,1.15,1.32,1.32,0,0,0,1.08.47l.52-2.93a3.38,3.38,0,0,1-1.37-.52,1.44,1.44,0,0,1-.5-1.47,2.29,2.29,0,0,1,1.12-1.59,3.2,3.2,0,0,1,1.46-.43l.08-.49H114l-.09.5a2,2,0,0,1,1.49.65,1.76,1.76,0,0,1,.4,1.24L115,44a1.21,1.21,0,0,0-1.17-1.37l-.47,2.67a3.49,3.49,0,0,1,1.54.61,1.44,1.44,0,0,1,.46,1.51,2.39,2.39,0,0,1-1.19,1.74,3.37,3.37,0,0,1-1.56.4l-.16.87h-.54Zm1.22-6.92a2.09,2.09,0,0,0-1,.33,1.53,1.53,0,0,0-.64,1A.89.89,0,0,0,112.1,45a3.06,3.06,0,0,0,.7.22Zm-.57,6.27a2.25,2.25,0,0,0,1.12-.34,1.71,1.71,0,0,0,.72-1.13,1,1,0,0,0-.3-1,2.65,2.65,0,0,0-1-.38Z"/><path class="cls-4" d="M119.52,49.55a2.2,2.2,0,0,1-1.66-.65,2,2,0,0,1-.39-1.5l.85-.13a1.45,1.45,0,0,0,.23,1.15,1.32,1.32,0,0,0,1.09.47l.51-2.93a3.27,3.27,0,0,1-1.36-.52,1.42,1.42,0,0,1-.5-1.47,2.24,2.24,0,0,1,1.12-1.59,3.19,3.19,0,0,1,1.45-.43l.09-.49h.54l-.09.5a2,2,0,0,1,1.49.65,1.71,1.71,0,0,1,.4,1.24l-.83.15a1.22,1.22,0,0,0-.3-1,1.28,1.28,0,0,0-.88-.4l-.47,2.67a3.61,3.61,0,0,1,1.55.61,1.44,1.44,0,0,1,.45,1.51,2.37,2.37,0,0,1-1.19,1.74,3.37,3.37,0,0,1-1.56.4l-.15.87h-.54Zm1.22-6.92a2.13,2.13,0,0,0-1,.33,1.53,1.53,0,0,0-.64,1,.91.91,0,0,0,.53,1.05,2.75,2.75,0,0,0,.7.22Zm-.56,6.27a2.21,2.21,0,0,0,1.11-.34,1.71,1.71,0,0,0,.72-1.13,1,1,0,0,0-.3-1,2.65,2.65,0,0,0-1-.38Z"/><polygon class="cls-8" points="43.24 34.38 52.27 53.63 75.7 41.33 43.24 34.38"/><polygon class="cls-9" points="49.26 38.78 63.61 55.22 67.5 45.39 49.26 38.78"/><polyline class="cls-10" points="63.61 55.22 65.24 51.1 49.26 38.78"/><path class="cls-11" d="M67.35,53.68a3.79,3.79,0,0,1,1.27,1"/><path class="cls-12" d="M70,57.59c.5,2.26.34,5.74-1.65,11.06-3.09,8.28.88,10.11,4.07,10.38"/><path class="cls-11" d="M74.12,79a11.13,11.13,0,0,0,1.58-.19"/><path class="cls-7" d="M188,102.21a2,2,0,1,1-3.49-2.11L183,99.16a2,2,0,0,1-3.5-2.12l-1.55-.93A2,2,0,1,1,174.44,94l-2-1.19-14.07,23.26,2,1.19a2,2,0,1,1,3.5,2.12l1.55.94a2,2,0,1,1,3.49,2.11l1.55.94a2,2,0,0,1,3.5,2.11l2,1.2L190,103.41Z"/><path class="cls-13" d="M188,100.31a2,2,0,0,1-3.49-2.11L183,97.26a2,2,0,0,1-3.5-2.12l-1.55-.93a2,2,0,1,1-3.49-2.12l-2-1.19-14.07,23.26,2,1.19a2,2,0,1,1,3.5,2.12l1.55.94a2,2,0,1,1,3.49,2.11l1.55.94a2,2,0,0,1,3.5,2.11l2,1.2L190,101.51Z"/><rect class="cls-14" x="17.24" y="139.39" width="165.52" height="0.61"/></g></svg>